<svg width="240" height="336" viewBox="0 0 240 336" fill="none" xmlns="http://www.w3.org/2000/svg">
<rect width="240" height="336" rx="11" fill="white"/>
<rect width="240" height="336" rx="11" fill="white"/>
<path d="M198.037 294.523C198.037 290.894 199.028 288.209 201.047 286.54C203.066 284.871 205.563 284 208.5 284C211.29 284 213.713 284.835 215.843 286.54C217.935 288.209 219 290.894 219 294.523V299.422H214.08V294.487C214.08 291.801 213.53 289.951 212.428 288.899C211.327 287.846 210.042 287.375 208.5 287.375C206.811 287.375 205.453 287.883 204.425 288.899C203.397 289.915 202.92 291.765 202.92 294.487V318H198V294.523H198.037Z" fill="#222222"/>
<path d="M41.9633 41.4771C41.9633 45.1057 40.9721 47.7909 38.9528 49.46C36.9336 51.1292 34.4371 52 31.5 52C28.7098 52 26.2867 51.1655 24.1574 49.46C22.0647 47.7909 21 45.1057 21 41.4771V36.5784H25.9196V41.5134C25.9196 44.1986 26.4703 46.0492 27.5717 47.1015C28.6731 48.1538 29.9581 48.6254 31.5 48.6254C33.1888 48.6254 34.5472 48.1175 35.5752 47.1015C36.6031 46.0855 37.0804 44.2348 37.0804 41.5134V18H42V41.4771H41.9633Z" fill="#222222"/>
<path d="M215.996 261.392C214.855 261.922 213.789 261.935 212.82 261.7C213.609 262.634 214.064 263.861 213.993 265.196C213.857 267.739 211.741 269.822 209.196 269.919C206.345 270.028 204 267.75 204 264.923C204 263.694 204.445 262.571 205.18 261.7C204.211 261.935 203.145 261.922 202.004 261.392C200.248 260.576 199.025 258.849 199 256.912C198.965 254.12 201.217 251.846 204 251.846C205.345 251.846 206.563 252.38 207.462 253.243V251.77C207.462 251.064 207.277 250.37 206.927 249.756L206.252 248.575C206.105 248.319 206.291 248 206.586 248H211.414C211.71 248 211.895 248.319 211.748 248.575L211.073 249.756C210.723 250.37 210.538 251.064 210.538 251.77V253.243C211.437 252.38 212.655 251.846 214 251.846C216.783 251.846 219.036 254.12 219 256.912C218.975 258.849 217.752 260.576 215.996 261.392Z" fill="black"/>
<path d="M37.9957 74.5307C36.8546 74.0007 35.7888 73.988 34.8196 74.223C35.6092 73.2884 36.0638 72.0619 35.9927 70.7272C35.8573 68.1838 33.7411 66.1011 31.1961 66.0037C28.3454 65.8949 26 68.1733 26 70.9999C26 72.2287 26.445 73.3522 27.1804 74.2229C26.2112 73.9879 25.1454 74.0006 24.0043 74.5306C22.2477 75.3468 21.0254 77.0741 21.0004 79.0106C20.9647 81.8025 23.2166 84.0768 26 84.0768C27.345 84.0768 28.5631 83.5433 29.4615 82.6795V84.1525C29.4615 84.8591 29.2773 85.5533 28.9265 86.1668L28.2519 87.3475C28.1054 87.604 28.2908 87.9229 28.5858 87.9229H33.4142C33.7096 87.9229 33.8946 87.6041 33.7481 87.3475L33.0735 86.1668C32.7231 85.5533 32.5385 84.8591 32.5385 84.1525V82.6795C33.4373 83.5433 34.6554 84.0768 36 84.0768C38.7834 84.0768 41.0357 81.8025 40.9996 79.0106C40.9746 77.0741 39.7522 75.3468 37.9957 74.5307Z" fill="black"/>
<path d="M147.983 166.123C143.418 164.003 139.155 163.952 135.278 164.892C138.437 161.154 140.255 156.247 139.971 150.909C139.429 140.735 130.965 132.404 120.785 132.015C109.382 131.58 100 140.693 100 151.999C100 156.915 101.78 161.409 104.722 164.892C100.845 163.952 96.5816 164.002 92.017 166.123C84.9909 169.387 80.1017 176.296 80.0017 184.042C79.8587 195.21 88.8663 204.307 100 204.307C105.38 204.307 110.252 202.173 113.846 198.718V204.61C113.846 207.436 113.109 210.213 111.706 212.667L109.008 217.39C108.422 218.416 109.163 219.692 110.343 219.692H129.657C130.838 219.692 131.578 218.416 130.992 217.39L128.294 212.667C126.892 210.213 126.154 207.436 126.154 204.61V198.718C129.749 202.173 134.621 204.307 140 204.307C151.134 204.307 160.143 195.21 159.998 184.042C159.898 176.296 155.009 169.387 147.983 166.123Z" fill="black"/>
</svg>
