<svg width="240" height="336" viewBox="0 0 240 336" fill="none" xmlns="http://www.w3.org/2000/svg">
<rect width="240" height="336" rx="11" fill="white"/>
<rect width="240" height="336" rx="11" fill="white"/>
<path d="M208.536 283C211.827 283 214.575 283.81 216.745 285.468C218.915 287.126 220 289.337 220 292.1C220 296.3 217.505 299.505 212.55 301.716C216.745 304 218.843 306.689 218.843 309.821C218.843 312.289 217.866 314.279 215.877 315.753C213.888 317.226 211.465 318 208.536 318C205.571 318 203.112 317.263 201.123 315.753C199.134 314.242 198.157 312.253 198.157 309.821C198.157 306.726 200.255 304.037 204.45 301.716C199.495 299.505 197 296.3 197 292.1C197 289.3 198.085 287.089 200.255 285.468C202.425 283.847 205.173 283 208.536 283ZM208.536 299.579C212.948 297.884 215.154 295.416 215.154 292.137C215.154 290.074 214.539 288.637 213.31 287.753C212.08 286.905 210.489 286.463 208.536 286.463C206.547 286.463 204.92 286.905 203.69 287.753C202.461 288.6 201.846 290.074 201.846 292.137C201.846 295.379 204.088 297.884 208.536 299.579ZM208.536 314.574C210.127 314.574 211.429 314.168 212.478 313.358C213.491 312.547 213.997 311.368 213.997 309.821C213.997 307.316 212.189 305.179 208.536 303.447C204.847 305.216 203.039 307.316 203.039 309.821C203.039 311.368 203.546 312.547 204.558 313.358C205.571 314.168 206.873 314.574 208.536 314.574Z" fill="#222222"/>
<path d="M31.4638 53C28.1729 53 25.4246 52.1895 23.2547 50.5316C21.0849 48.8737 20 46.6632 20 43.9C20 39.7 22.4953 36.4948 27.4497 34.2843C23.2547 32 21.1573 29.3105 21.1573 26.179C21.1573 23.7105 22.1336 21.7211 24.1226 20.2474C26.1116 18.7737 28.5346 18 31.4638 18C34.4292 18 36.8884 18.7369 38.8774 20.2474C40.8664 21.758 41.8428 23.7474 41.8428 26.179C41.8428 29.2737 39.7453 31.9632 35.5503 34.2843C40.5047 36.4948 43 39.7 43 43.9C43 46.7 41.9151 48.9106 39.7453 50.5316C37.5755 52.1527 34.827 53 31.4638 53ZM31.4638 36.4211C27.0519 38.1158 24.8459 40.5843 24.8459 43.8632C24.8459 45.9264 25.4607 47.3632 26.6903 48.2474C27.9198 49.0948 29.511 49.5369 31.4638 49.5369C33.4528 49.5369 35.0802 49.0948 36.3098 48.2474C37.5393 47.4001 38.1541 45.9264 38.1541 43.8632C38.1541 40.6211 35.9119 38.1158 31.4638 36.4211ZM31.4638 21.4264C29.8726 21.4264 28.5708 21.8316 27.522 22.6421C26.5094 23.4527 26.0032 24.6316 26.0032 26.179C26.0032 28.6842 27.8113 30.8211 31.4638 32.5527C35.1525 30.7843 36.9607 28.6842 36.9607 26.179C36.9607 24.6316 36.4544 23.4527 35.4418 22.6421C34.4293 21.8316 33.1274 21.4264 31.4638 21.4264Z" fill="#222222"/>
<path d="M215.996 261.392C214.855 261.922 213.789 261.935 212.82 261.7C213.609 262.634 214.064 263.861 213.993 265.196C213.857 267.739 211.741 269.822 209.196 269.919C206.345 270.028 204 267.75 204 264.923C204 263.694 204.445 262.571 205.18 261.7C204.211 261.935 203.145 261.922 202.004 261.392C200.248 260.576 199.025 258.849 199 256.912C198.965 254.12 201.217 251.846 204 251.846C205.345 251.846 206.563 252.38 207.462 253.243V251.77C207.462 251.064 207.277 250.37 206.927 249.756L206.252 248.575C206.105 248.319 206.291 248 206.586 248H211.414C211.71 248 211.895 248.319 211.748 248.575L211.073 249.756C210.723 250.37 210.538 251.064 210.538 251.77V253.243C211.437 252.38 212.655 251.846 214 251.846C216.783 251.846 219.036 254.12 219 256.912C218.975 258.849 217.752 260.576 215.996 261.392Z" fill="black"/>
<path d="M37.9957 74.5307C36.8546 74.0007 35.7888 73.988 34.8196 74.223C35.6092 73.2884 36.0638 72.0619 35.9927 70.7272C35.8573 68.1838 33.7411 66.1011 31.1961 66.0037C28.3454 65.8949 26 68.1733 26 70.9999C26 72.2287 26.445 73.3522 27.1804 74.2229C26.2112 73.9879 25.1454 74.0006 24.0043 74.5306C22.2477 75.3468 21.0254 77.0741 21.0004 79.0106C20.9647 81.8025 23.2166 84.0768 26 84.0768C27.345 84.0768 28.5631 83.5433 29.4615 82.6795V84.1525C29.4615 84.8591 29.2773 85.5533 28.9265 86.1668L28.2519 87.3475C28.1054 87.604 28.2908 87.9229 28.5858 87.9229H33.4142C33.7096 87.9229 33.8946 87.6041 33.7481 87.3475L33.0735 86.1668C32.7231 85.5533 32.5385 84.8591 32.5385 84.1525V82.6795C33.4373 83.5433 34.6554 84.0768 36 84.0768C38.7834 84.0768 41.0357 81.8025 40.9996 79.0106C40.9746 77.0741 39.7522 75.3468 37.9957 74.5307Z" fill="black"/>
<path d="M147.983 166.123C143.418 164.003 139.155 163.952 135.278 164.892C138.437 161.154 140.255 156.247 139.971 150.909C139.429 140.735 130.965 132.404 120.785 132.015C109.382 131.58 100 140.693 100 151.999C100 156.915 101.78 161.409 104.722 164.892C100.845 163.952 96.5816 164.002 92.017 166.123C84.9909 169.387 80.1017 176.296 80.0017 184.042C79.8587 195.21 88.8663 204.307 100 204.307C105.38 204.307 110.252 202.173 113.846 198.718V204.61C113.846 207.436 113.109 210.213 111.706 212.667L109.008 217.39C108.422 218.416 109.163 219.692 110.343 219.692H129.657C130.838 219.692 131.578 218.416 130.992 217.39L128.294 212.667C126.892 210.213 126.154 207.436 126.154 204.61V198.718C129.749 202.173 134.621 204.307 140 204.307C151.134 204.307 160.143 195.21 159.998 184.042C159.898 176.296 155.009 169.387 147.983 166.123Z" fill="black"/>
</svg>
