<svg width="240" height="336" viewBox="0 0 240 336" fill="none" xmlns="http://www.w3.org/2000/svg">
<rect width="240" height="336" rx="11" fill="white"/>
<rect width="240" height="336" rx="11" fill="white"/>
<path d="M198 293.673C198 290.287 199.022 287.637 201.101 285.797C203.144 283.92 205.771 283 208.982 283C211.973 283 214.527 283.92 216.716 285.797C218.905 287.674 220 290.802 220 295.255V305.303C220 309.609 218.942 312.774 216.862 314.872C214.783 316.969 211.974 318 208.471 318C204.531 318 201.32 316.454 198.803 313.326L202.816 311.155C204.056 313.4 205.917 314.504 208.435 314.504C210.514 314.504 212.156 313.841 213.323 312.516C214.491 311.191 215.111 308.799 215.111 305.266V300.518C213.36 303.021 210.842 304.272 207.522 304.272C204.677 304.272 202.378 303.352 200.627 301.549C198.876 299.745 198 297.169 198 293.673ZM202.889 293.71C202.889 296.47 203.4 298.347 204.421 299.377C205.443 300.371 206.756 300.886 208.398 300.886C211.9 300.886 214.126 299.267 215.075 296.028C215.075 291.87 214.491 289.257 213.323 288.152C212.156 287.048 210.696 286.496 208.945 286.496C207.267 286.496 205.808 287.048 204.64 288.152C203.473 289.257 202.889 291.097 202.889 293.71Z" fill="#222222"/>
<path d="M42 42.327C42 45.7129 40.9784 48.3628 38.8988 50.203C36.8557 52.08 34.2288 53 31.0182 53C28.0265 53 25.4727 52.08 23.2836 50.203C21.0946 48.326 20 45.1977 20 40.7445V30.6971C20 26.3911 21.058 23.2261 23.1376 21.1283C25.2172 19.0305 28.0265 18 31.529 18C35.4692 18 38.6799 19.5457 41.1973 22.674L37.1841 24.8454C35.9436 22.6004 34.0829 21.4963 31.5655 21.4963C29.4859 21.4963 27.8441 22.1588 26.6766 23.4837C25.5091 24.8086 24.8889 27.2008 24.8889 30.734V35.4816C26.6402 32.979 29.1575 31.7276 32.4776 31.7276C35.3233 31.7276 37.6219 32.6478 39.3731 34.4511C41.1244 36.2545 42 38.8307 42 42.327ZM37.1111 42.2903C37.1111 39.53 36.6003 37.653 35.5788 36.6225C34.5572 35.6288 33.2438 35.1136 31.602 35.1136C28.0995 35.1136 25.8739 36.733 24.9253 39.9717C24.9253 44.1305 25.5091 46.7434 26.6766 47.8475C27.8441 48.9516 29.3035 49.5037 31.0548 49.5037C32.733 49.5037 34.1924 48.9516 35.3599 47.8475C36.5273 46.7434 37.1111 44.9033 37.1111 42.2903Z" fill="#222222"/>
<path d="M215.996 261.392C214.855 261.922 213.789 261.935 212.82 261.7C213.609 262.634 214.064 263.861 213.993 265.196C213.857 267.739 211.741 269.822 209.196 269.919C206.345 270.028 204 267.75 204 264.923C204 263.694 204.445 262.571 205.18 261.7C204.211 261.935 203.145 261.922 202.004 261.392C200.248 260.576 199.025 258.849 199 256.912C198.965 254.12 201.217 251.846 204 251.846C205.345 251.846 206.563 252.38 207.462 253.243V251.77C207.462 251.064 207.277 250.37 206.927 249.756L206.252 248.575C206.105 248.319 206.291 248 206.586 248H211.414C211.71 248 211.895 248.319 211.748 248.575L211.073 249.756C210.723 250.37 210.538 251.064 210.538 251.77V253.243C211.437 252.38 212.655 251.846 214 251.846C216.783 251.846 219.036 254.12 219 256.912C218.975 258.849 217.752 260.576 215.996 261.392Z" fill="black"/>
<path d="M37.9957 74.5307C36.8546 74.0007 35.7888 73.988 34.8196 74.223C35.6092 73.2884 36.0638 72.0619 35.9927 70.7272C35.8573 68.1838 33.7411 66.1011 31.1961 66.0037C28.3454 65.8949 26 68.1733 26 70.9999C26 72.2287 26.445 73.3522 27.1804 74.2229C26.2112 73.9879 25.1454 74.0006 24.0043 74.5306C22.2477 75.3468 21.0254 77.0741 21.0004 79.0106C20.9647 81.8025 23.2166 84.0768 26 84.0768C27.345 84.0768 28.5631 83.5433 29.4615 82.6795V84.1525C29.4615 84.8591 29.2773 85.5533 28.9265 86.1668L28.2519 87.3475C28.1054 87.604 28.2908 87.9229 28.5858 87.9229H33.4142C33.7096 87.9229 33.8946 87.6041 33.7481 87.3475L33.0735 86.1668C32.7231 85.5533 32.5385 84.8591 32.5385 84.1525V82.6795C33.4373 83.5433 34.6554 84.0768 36 84.0768C38.7834 84.0768 41.0357 81.8025 40.9996 79.0106C40.9746 77.0741 39.7522 75.3468 37.9957 74.5307Z" fill="black"/>
<path d="M147.983 166.123C143.418 164.003 139.155 163.952 135.278 164.892C138.437 161.154 140.255 156.247 139.971 150.909C139.429 140.735 130.965 132.404 120.785 132.015C109.382 131.58 100 140.693 100 151.999C100 156.915 101.78 161.409 104.722 164.892C100.845 163.952 96.5816 164.002 92.017 166.123C84.9909 169.387 80.1017 176.296 80.0017 184.042C79.8587 195.21 88.8663 204.307 100 204.307C105.38 204.307 110.252 202.173 113.846 198.718V204.61C113.846 207.436 113.109 210.213 111.706 212.667L109.008 217.39C108.422 218.416 109.163 219.692 110.343 219.692H129.657C130.838 219.692 131.578 218.416 130.992 217.39L128.294 212.667C126.892 210.213 126.154 207.436 126.154 204.61V198.718C129.749 202.173 134.621 204.307 140 204.307C151.134 204.307 160.143 195.21 159.998 184.042C159.898 176.296 155.009 169.387 147.983 166.123Z" fill="black"/>
</svg>
