<svg fill="none" height="336" viewBox="0 0 240 336" width="240" xmlns="http://www.w3.org/2000/svg"><rect fill="#fff" height="336" rx="11" width="240"/><rect fill="#fff" height="336" rx="11" width="240"/><path d="m198 283h20.807v3.28c0 3.541-2.2 7.492-6.637 11.853l-6.675 6.56c-1.641 1.603-2.461 3.206-2.461 4.809 0 1.677.522 2.944 1.603 3.764 1.044.82 2.499 1.23 4.363 1.23 3.17 0 5.481-1.453 6.861-4.398l4.139 2.199c-2.573 3.802-6.227 5.703-10.963 5.703-3.02 0-5.63-.783-7.756-2.385-2.125-1.603-3.206-3.653-3.206-6.113 0-2.423 1.267-4.883 3.84-7.381l6.563-6.448c3.58-3.541 5.407-6.672 5.407-9.356h-15.81v-3.317z" fill="#222"/><path d="m42 53h-20.8069v-3.2801c0-3.541 2.2-7.492 6.6373-11.853l6.6746-6.5601c1.6407-1.6028 2.4611-3.2056 2.4611-4.8084 0-1.6773-.522-2.9447-1.6034-3.7647-1.0441-.82-2.4983-1.23-4.3628-1.23-3.1695 0-5.4813 1.4537-6.861 4.3983l-4.1389-2.1991c2.5729-3.8019 6.227-5.7029 10.9626-5.7029 3.0204 0 5.6306.7827 7.756 2.3855 2.1254 1.6027 3.2068 3.6528 3.2068 6.1129 0 2.4228-1.2678 4.8828-3.8407 7.3801l-6.5627 6.4484c-3.5796 3.5411-5.4068 6.6721-5.4068 9.3558h15.8102v3.3173z" fill="#222"/><g fill="#000"><path d="m215.996 261.392c-1.141.53-2.207.543-3.176.308.789.934 1.244 2.161 1.173 3.496-.136 2.543-2.252 4.626-4.797 4.723-2.851.109-5.196-2.169-5.196-4.996 0-1.229.445-2.352 1.18-3.223-.969.235-2.035.222-3.176-.308-1.756-.816-2.979-2.543-3.004-4.48-.035-2.792 2.217-5.066 5-5.066 1.345 0 2.563.534 3.462 1.397v-1.473c0-.706-.185-1.4-.535-2.014l-.675-1.181c-.147-.256.039-.575.334-.575h4.828c.296 0 .481.319.334.575l-.675 1.181c-.35.614-.535 1.308-.535 2.014v1.473c.899-.863 2.117-1.397 3.462-1.397 2.783 0 5.036 2.274 5 5.066-.025 1.937-1.248 3.664-3.004 4.48z"/><path d="m37.9957 74.5307c-1.1411-.53-2.2069-.5427-3.1761-.3077.7896-.9346 1.2442-2.1611 1.1731-3.4958-.1354-2.5434-2.2516-4.6261-4.7966-4.7235-2.8507-.1088-5.1961 2.1696-5.1961 4.9962 0 1.2288.445 2.3523 1.1804 3.223-.9692-.235-2.035-.2223-3.1761.3077-1.7566.8162-2.9789 2.5435-3.0039 4.48-.0357 2.7919 2.2162 5.0662 4.9996 5.0662 1.345 0 2.5631-.5335 3.4615-1.3973v1.473c0 .7066-.1842 1.4008-.535 2.0143l-.6746 1.1807c-.1465.2565.0389.5754.3339.5754h4.8284c.2954 0 .4804-.3188.3339-.5754l-.6746-1.1807c-.3504-.6135-.535-1.3077-.535-2.0143v-1.473c.8988.8638 2.1169 1.3973 3.4615 1.3973 2.7834 0 5.0357-2.2743 4.9996-5.0662-.025-1.9365-1.2474-3.6638-3.0039-4.4799z"/><path d="m147.983 166.123c-4.565-2.12-8.828-2.171-12.705-1.231 3.159-3.738 4.977-8.645 4.693-13.983-.542-10.174-9.006-18.505-19.186-18.894-11.403-.435-20.785 8.678-20.785 19.984 0 4.916 1.78 9.41 4.722 12.893-3.877-.94-8.1404-.89-12.705 1.231-7.0261 3.264-11.9153 10.173-12.0153 17.919-.143 11.168 8.8646 20.265 19.9983 20.265 5.38 0 10.252-2.134 13.846-5.589v5.892c0 2.826-.737 5.603-2.14 8.057l-2.698 4.723c-.586 1.026.155 2.302 1.335 2.302h19.314c1.181 0 1.921-1.276 1.335-2.302l-2.698-4.723c-1.402-2.454-2.14-5.231-2.14-8.057v-5.892c3.595 3.455 8.467 5.589 13.846 5.589 11.134 0 20.143-9.097 19.998-20.265-.1-7.746-4.989-14.655-12.015-17.919z"/></g></svg>