<svg width="240" height="336" viewBox="0 0 240 336" fill="none" xmlns="http://www.w3.org/2000/svg">
<rect width="240" height="336" rx="11" fill="white"/>
<rect width="240" height="336" rx="11" fill="white"/>
<path d="M197.036 293.216H199.857V284H204.703V293.216H220V296.447L205.788 318H199.821V296.447H197V293.216H197.036ZM204.703 296.447V312.456L215.263 296.447H204.703Z" fill="#222222"/>
<path d="M42.9638 42.7841H40.143V52H35.2971V42.7841H20V39.5529L34.2123 18H40.1792V39.5529H43V42.7841H42.9638ZM35.2971 39.5529V23.5442L24.7374 39.5529H35.2971Z" fill="#222222"/>
<path d="M209 250L199 262.174L209 274.348L219 262.174L209 250Z" fill="#D71E00"/>
<path d="M31 63L21 75.1739L31 87.3478L41 75.1739L31 63Z" fill="#D71E00"/>
<path d="M120 125L80 173.696L120 222.391L160 173.696L120 125Z" fill="#D71E00"/>
</svg>
