<svg width="240" height="336" viewBox="0 0 240 336" fill="none" xmlns="http://www.w3.org/2000/svg">
<rect width="240" height="336" rx="11" fill="white"/>
<rect width="240" height="336" rx="11" fill="white"/>
<path d="M215.146 285.907V284H220V285.907C220 289.171 218.769 294.636 216.269 302.339L211.235 318H205.765L200.731 302.339C198.231 294.636 197 289.171 197 285.907V284H201.854V285.907C201.854 287.448 202.143 289.465 202.687 291.959H214.35C214.857 289.428 215.146 287.411 215.146 285.907ZM208.482 311.948L212.104 300.211C212.683 298.378 213.154 296.727 213.553 295.187H203.411C203.809 296.727 204.28 298.414 204.86 300.211L208.482 311.948Z" fill="#222222"/>
<path d="M24.8536 50.0928V52H20V50.0928C20 46.8285 21.2315 41.3635 23.7307 33.6613L28.7653 18H34.2347L39.2693 33.6613C41.7685 41.3635 43 46.8285 43 50.0928V52H38.1465V50.0928C38.1465 48.5524 37.8567 46.5351 37.3134 44.041H25.6504C25.1433 46.5718 24.8536 48.589 24.8536 50.0928ZM31.5181 24.0518L27.8961 35.7886C27.3165 37.6225 26.8457 39.273 26.4472 40.8134H36.589C36.1906 39.273 35.7197 37.5858 35.1402 35.7886L31.5181 24.0518Z" fill="#222222"/>
<path d="M209 250L199 262.174L209 274.348L219 262.174L209 250Z" fill="#D71E00"/>
<path d="M31 63L21 75.1739L31 87.3478L41 75.1739L31 63Z" fill="#D71E00"/>
<path d="M120 119L80 167.696L120 216.391L160 167.696L120 119Z" fill="#D71E00"/>
</svg>
