<svg width="240" height="336" viewBox="0 0 240 336" fill="none" xmlns="http://www.w3.org/2000/svg">
<rect width="240" height="336" rx="11" fill="white"/>
<rect width="240" height="336" rx="11" fill="white"/>
<path d="M205.186 301.22C207.987 296.924 209.497 292.335 209.645 287.415L209.792 284H214.73L214.583 287.672C214.399 292.445 212.519 297.585 208.982 303.056L205.002 309.225C203.601 311.318 202.938 313.153 202.938 314.769H220V318H198V316.421C198 313.667 199.069 310.62 201.243 307.352L205.186 301.22Z" fill="#222222"/>
<path d="M34.8141 34.7797C32.0134 39.0756 30.5026 43.6652 30.3552 48.5853L30.2077 52H25.2697L25.4171 48.3283C25.6013 43.5551 27.4808 38.4146 31.0184 32.9438L34.9983 26.7753C36.3987 24.6825 37.062 22.8466 37.062 21.231H20V18H42V19.5788C42 22.3326 40.9314 25.3801 38.7572 28.6479L34.8141 34.7797Z" fill="#222222"/>
<path d="M209 250L199 262.174L209 274.348L219 262.174L209 250Z" fill="#D71E00"/>
<path d="M31 63L21 75.1739L31 87.3478L41 75.1739L31 63Z" fill="#D71E00"/>
<path d="M120 119L80 167.696L120 216.391L160 167.696L120 119Z" fill="#D71E00"/>
</svg>
