<svg width="240" height="336" viewBox="0 0 240 336" fill="none" xmlns="http://www.w3.org/2000/svg">
<rect width="240" height="336" rx="11" fill="white"/>
<rect width="240" height="336" rx="11" fill="white"/>
<path fill-rule="evenodd" clip-rule="evenodd" d="M214 309C214 313.971 209.971 318 205 318C200.029 318 196 313.971 196 309V291.5C196 286.529 200.029 282.5 205 282.5C209.971 282.5 214 286.529 214 291.5V309ZM209 310.5C209 312.709 207.209 314.5 205 314.5C202.791 314.5 201 312.709 201 310.5V290C201 287.791 202.791 286 205 286C207.209 286 209 287.791 209 290V310.5Z" fill="#222222"/>
<path d="M217.226 317H222V283H217.226V317Z" fill="#222222"/>
<path fill-rule="evenodd" clip-rule="evenodd" d="M26 27C26 22.0294 30.0294 18 35 18C39.9706 18 44 22.0294 44 27V44.5C44 49.4706 39.9706 53.5 35 53.5C30.0294 53.5 26 49.4706 26 44.5V27ZM31 25.5C31 23.2909 32.7909 21.5 35 21.5C37.2091 21.5 39 23.2909 39 25.5V46C39 48.2091 37.2091 50 35 50C32.7909 50 31 48.2091 31 46V25.5Z" fill="#222222"/>
<path d="M22.7743 19H18V53H22.7743V19Z" fill="#222222"/>
<path d="M209.011 267.203C208.246 269.151 206.61 270.639 204.579 270.639C202.868 270.639 201.462 269.735 200.317 268.508C198.796 266.879 198.119 263.138 200.938 260.318C202.369 258.888 208.994 252 208.994 252C208.994 252 215.619 258.888 217.049 260.319C219.869 263.138 219.225 266.879 217.67 268.508C216.512 269.722 215.12 270.639 213.409 270.639C211.377 270.639 209.775 269.151 209.011 267.203Z" fill="#D71E00"/>
<path d="M30.9895 69.4362C31.7541 67.4882 33.3898 66 35.4214 66C37.1321 66 38.538 66.9046 39.6827 68.1309C41.2037 69.76 41.8813 73.5016 39.0618 76.3207C37.6314 77.7511 31.0061 84.639 31.0061 84.639C31.0061 84.639 24.3811 77.7511 22.9507 76.3206C20.1312 73.5016 20.7753 69.7599 22.3298 68.1308C23.4876 66.9174 24.8804 66 26.5911 66C28.6227 66 30.2249 67.4882 30.9895 69.4362Z" fill="#D71E00"/>
<path d="M119.958 144.745C123.016 136.953 129.559 131 137.686 131C144.528 131 150.152 134.618 154.731 139.523C160.815 146.04 163.525 161.006 152.247 172.283C146.526 178.004 120.024 205.556 120.024 205.556C120.024 205.556 93.5244 178.004 87.8027 172.283C76.525 161.006 79.1012 146.04 85.3191 139.523C89.9504 134.67 95.5216 131 102.364 131C110.491 131 116.899 136.953 119.958 144.745Z" fill="#D71E00"/>
</svg>
