<svg fill="none" height="336" viewBox="0 0 240 336" width="240" xmlns="http://www.w3.org/2000/svg"><rect fill="#fff" height="336" rx="11" width="240"/><rect fill="#fff" height="336" rx="11" width="240"/><path d="m198 283h20.807v3.28c0 3.541-2.2 7.492-6.637 11.853l-6.675 6.56c-1.641 1.603-2.461 3.206-2.461 4.809 0 1.677.522 2.944 1.603 3.764 1.044.82 2.499 1.23 4.363 1.23 3.17 0 5.481-1.453 6.861-4.398l4.139 2.199c-2.573 3.802-6.227 5.703-10.963 5.703-3.02 0-5.63-.783-7.756-2.385-2.125-1.603-3.206-3.653-3.206-6.113 0-2.423 1.267-4.883 3.84-7.381l6.563-6.448c3.58-3.541 5.407-6.672 5.407-9.356h-15.81v-3.317z" fill="#222"/><path d="m42 53h-20.8069v-3.2801c0-3.541 2.2-7.492 6.6373-11.853l6.6746-6.5601c1.6407-1.6028 2.4611-3.2056 2.4611-4.8084 0-1.6773-.522-2.9447-1.6034-3.7647-1.0441-.82-2.4983-1.23-4.3628-1.23-3.1695 0-5.4813 1.4537-6.861 4.3983l-4.1389-2.1991c2.5729-3.8019 6.227-5.7029 10.9626-5.7029 3.0204 0 5.6306.7827 7.756 2.3855 2.1254 1.6027 3.2068 3.6528 3.2068 6.1129 0 2.4228-1.2678 4.8828-3.8407 7.3801l-6.5627 6.4484c-3.5796 3.5411-5.4068 6.6721-5.4068 9.3558h15.8102v3.3173z" fill="#222"/><g fill="#d71e00"><path d="m209.011 267.203c-.765 1.948-2.401 3.436-4.432 3.436-1.711 0-3.117-.904-4.262-2.131-1.521-1.629-2.198-5.37.621-8.19 1.431-1.43 8.056-8.318 8.056-8.318s6.625 6.888 8.055 8.319c2.82 2.819 2.176 6.56.621 8.189-1.158 1.214-2.55 2.131-4.261 2.131-2.032 0-3.634-1.488-4.398-3.436z"/><path d="m30.9895 69.4362c.7646-1.948 2.4003-3.4362 4.4319-3.4362 1.7107 0 3.1166.9046 4.2613 2.1309 1.521 1.6291 2.1986 5.3707-.6209 8.1898-1.4304 1.4304-8.0557 8.3183-8.0557 8.3183s-6.625-6.8879-8.0554-8.3184c-2.8195-2.819-2.1754-6.5607-.6209-8.1898 1.1578-1.2134 2.5506-2.1308 4.2613-2.1308 2.0316 0 3.6338 1.4882 4.3984 3.4362z"/><path d="m119.958 144.745c3.058-7.792 9.601-13.745 17.728-13.745 6.842 0 12.466 3.618 17.045 8.523 6.084 6.517 8.794 21.483-2.484 32.76-5.721 5.721-32.223 33.273-32.223 33.273s-26.4996-27.552-32.2213-33.273c-11.2777-11.277-8.7015-26.243-2.4836-32.76 4.6313-4.853 10.2025-8.523 17.0449-8.523 8.127 0 14.535 5.953 17.594 13.745z"/></g></svg>