<svg width="240" height="336" viewBox="0 0 240 336" fill="none" xmlns="http://www.w3.org/2000/svg">
<rect width="240" height="336" rx="11" fill="white"/>
<rect width="240" height="336" rx="11" fill="white"/>
<path d="M197.036 293.216H199.857V284H204.703V293.216H220V296.447L205.788 318H199.821V296.447H197V293.216H197.036ZM204.703 296.447V312.456L215.263 296.447H204.703Z" fill="#222222"/>
<path d="M42.9638 42.7841H40.143V52H35.2971V42.7841H20V39.5529L34.2123 18H40.1792V39.5529H43V42.7841H42.9638ZM35.2971 39.5529V23.5442L24.7374 39.5529H35.2971Z" fill="#222222"/>
<path d="M209.011 267.203C208.246 269.151 206.61 270.639 204.579 270.639C202.868 270.639 201.462 269.735 200.317 268.508C198.796 266.879 198.119 263.138 200.938 260.318C202.369 258.888 208.994 252 208.994 252C208.994 252 215.619 258.888 217.049 260.319C219.869 263.138 219.225 266.879 217.67 268.508C216.512 269.722 215.12 270.639 213.409 270.639C211.377 270.639 209.775 269.151 209.011 267.203Z" fill="#D71E00"/>
<path d="M30.9895 69.4362C31.7541 67.4882 33.3898 66 35.4214 66C37.1321 66 38.538 66.9046 39.6827 68.1309C41.2037 69.76 41.8813 73.5016 39.0618 76.3207C37.6314 77.7511 31.0061 84.639 31.0061 84.639C31.0061 84.639 24.3811 77.7511 22.9507 76.3206C20.1312 73.5016 20.7753 69.7599 22.3298 68.1308C23.4876 66.9174 24.8804 66 26.5911 66C28.6227 66 30.2249 67.4882 30.9895 69.4362Z" fill="#D71E00"/>
<path d="M119.958 144.745C123.016 136.953 129.559 131 137.686 131C144.528 131 150.152 134.618 154.731 139.523C160.815 146.04 163.525 161.006 152.247 172.283C146.526 178.004 120.024 205.556 120.024 205.556C120.024 205.556 93.5244 178.004 87.8027 172.283C76.525 161.006 79.1012 146.04 85.3191 139.523C89.9504 134.67 95.5216 131 102.364 131C110.491 131 116.899 136.953 119.958 144.745Z" fill="#D71E00"/>
</svg>
