<svg width="240" height="336" viewBox="0 0 240 336" fill="none" xmlns="http://www.w3.org/2000/svg">
<rect width="240" height="336" rx="11" fill="white"/>
<rect width="240" height="336" rx="11" fill="white"/>
<path d="M205.186 301.22C207.987 296.924 209.497 292.335 209.645 287.415L209.792 284H214.73L214.583 287.672C214.399 292.445 212.519 297.585 208.982 303.056L205.002 309.225C203.601 311.318 202.938 313.153 202.938 314.769H220V318H198V316.421C198 313.667 199.069 310.62 201.243 307.352L205.186 301.22Z" fill="#222222"/>
<path d="M34.8141 34.7797C32.0134 39.0756 30.5026 43.6652 30.3552 48.5853L30.2077 52H25.2697L25.4171 48.3283C25.6013 43.5551 27.4808 38.4146 31.0184 32.9438L34.9983 26.7753C36.3987 24.6825 37.062 22.8466 37.062 21.231H20V18H42V19.5788C42 22.3326 40.9314 25.3801 38.7572 28.6479L34.8141 34.7797Z" fill="#222222"/>
<path d="M209.011 267.203C208.246 269.151 206.61 270.639 204.579 270.639C202.868 270.639 201.462 269.735 200.317 268.508C198.796 266.879 198.119 263.138 200.938 260.318C202.369 258.888 208.994 252 208.994 252C208.994 252 215.619 258.888 217.049 260.319C219.869 263.138 219.225 266.879 217.67 268.508C216.512 269.722 215.12 270.639 213.409 270.639C211.377 270.639 209.775 269.151 209.011 267.203Z" fill="#D71E00"/>
<path d="M30.9895 69.4362C31.7541 67.4882 33.3898 66 35.4214 66C37.1321 66 38.538 66.9046 39.6827 68.1309C41.2037 69.76 41.8813 73.5016 39.0618 76.3207C37.6314 77.7511 31.0061 84.639 31.0061 84.639C31.0061 84.639 24.3811 77.7511 22.9507 76.3206C20.1312 73.5016 20.7753 69.7599 22.3298 68.1308C23.4876 66.9174 24.8804 66 26.5911 66C28.6227 66 30.2249 67.4882 30.9895 69.4362Z" fill="#D71E00"/>
<path d="M119.958 144.745C123.016 136.953 129.559 131 137.686 131C144.528 131 150.152 134.618 154.731 139.523C160.815 146.04 163.525 161.006 152.247 172.283C146.526 178.004 120.024 205.556 120.024 205.556C120.024 205.556 93.5244 178.004 87.8027 172.283C76.525 161.006 79.1012 146.04 85.3191 139.523C89.9504 134.67 95.5216 131 102.364 131C110.491 131 116.899 136.953 119.958 144.745Z" fill="#D71E00"/>
</svg>
