<svg width="240" height="336" viewBox="0 0 240 336" fill="none" xmlns="http://www.w3.org/2000/svg">
<rect width="240" height="336" rx="11" fill="white"/>
<rect width="240" height="336" rx="11" fill="white"/>
<path d="M220 307.29C220 310.676 218.978 313.326 216.899 315.203C214.856 317.08 212.229 318 209.018 318C206.027 318 203.473 317.08 201.284 315.203C199.095 313.326 198 310.198 198 305.745V295.697C198 291.391 199.058 288.226 201.138 286.128C203.217 284.067 206.027 283 209.529 283C213.469 283 216.68 284.546 219.197 287.674L215.184 289.698C213.944 287.527 212.083 286.459 209.566 286.459C207.486 286.459 205.844 287.122 204.677 288.41C203.509 289.698 202.889 292.127 202.889 295.624V300.371C204.531 297.869 207.085 296.617 210.478 296.617C213.323 296.617 215.622 297.537 217.373 299.341C219.124 301.144 220 303.794 220 307.29ZM215.075 307.327C215.075 304.53 214.564 302.616 213.542 301.623C212.521 300.629 211.207 300.114 209.566 300.114C206.063 300.114 203.801 301.88 202.852 305.376C202.852 309.278 203.436 311.78 204.604 312.884C205.771 313.988 207.231 314.54 208.982 314.54C210.66 314.54 212.083 313.988 213.287 312.884C214.491 311.78 215.075 309.903 215.075 307.327Z" fill="#222222"/>
<path d="M20 28.7098C20 25.3239 21.0215 22.674 23.1011 20.797C25.1442 18.92 27.7711 18 30.9817 18C33.9734 18 36.5273 18.92 38.7164 20.797C40.9054 22.674 42 25.8023 42 30.2555V40.3029C42 44.6089 40.942 47.774 38.8624 49.8718C36.7827 51.9328 33.9735 53 30.471 53C26.5307 53 23.3201 51.4543 20.8027 48.326L24.8159 46.3019C26.0564 48.4733 27.9171 49.5406 30.4345 49.5406C32.5141 49.5406 34.1559 48.878 35.3234 47.5899C36.4909 46.3018 37.1111 43.8728 37.1111 40.3764V35.6288C35.4693 38.1314 32.9154 39.3828 29.5224 39.3828C26.6766 39.3828 24.3781 38.4627 22.6269 36.6594C20.8756 34.856 20 32.2061 20 28.7098ZM24.9253 28.673C24.9253 31.47 25.4361 33.3838 26.4577 34.3775C27.4792 35.3712 28.7927 35.8864 30.4345 35.8864C33.937 35.8864 36.199 34.1199 37.1476 30.6236C37.1476 26.7224 36.5639 24.2197 35.3964 23.1156C34.2289 22.0115 32.7694 21.4595 31.0182 21.4595C29.3399 21.4595 27.9171 22.0115 26.7131 23.1156C25.5091 24.2197 24.9253 26.0967 24.9253 28.673Z" fill="#222222"/>
<path d="M209.011 267.203C208.246 269.151 206.61 270.639 204.579 270.639C202.868 270.639 201.462 269.735 200.317 268.508C198.796 266.879 198.119 263.138 200.938 260.318C202.369 258.888 208.994 252 208.994 252C208.994 252 215.619 258.888 217.049 260.319C219.869 263.138 219.225 266.879 217.67 268.508C216.512 269.722 215.12 270.639 213.409 270.639C211.377 270.639 209.775 269.151 209.011 267.203Z" fill="#D71E00"/>
<path d="M30.9895 69.4362C31.7541 67.4882 33.3898 66 35.4214 66C37.1321 66 38.538 66.9046 39.6827 68.1309C41.2037 69.76 41.8813 73.5016 39.0618 76.3207C37.6314 77.7511 31.0061 84.639 31.0061 84.639C31.0061 84.639 24.3811 77.7511 22.9507 76.3206C20.1312 73.5016 20.7753 69.7599 22.3298 68.1308C23.4876 66.9174 24.8804 66 26.5911 66C28.6227 66 30.2249 67.4882 30.9895 69.4362Z" fill="#D71E00"/>
<path d="M119.958 144.745C123.016 136.953 129.559 131 137.686 131C144.528 131 150.152 134.618 154.731 139.523C160.815 146.04 163.525 161.006 152.247 172.283C146.526 178.004 120.024 205.556 120.024 205.556C120.024 205.556 93.5244 178.004 87.8027 172.283C76.525 161.006 79.1012 146.04 85.3191 139.523C89.9504 134.67 95.5216 131 102.364 131C110.491 131 116.899 136.953 119.958 144.745Z" fill="#D71E00"/>
</svg>
