<svg width="240" height="336" viewBox="0 0 240 336" fill="none" xmlns="http://www.w3.org/2000/svg">
<rect width="240" height="336" rx="11" fill="white"/>
<rect width="240" height="336" rx="11" fill="white"/>
<path d="M198 294.91C198 291.431 199.095 288.748 201.284 286.863C203.473 284.979 206.099 284 209.237 284C214.017 284 217.592 285.74 220 289.183L215.987 291.213C214.6 288.676 212.375 287.407 209.274 287.407C207.595 287.407 206.099 287.987 204.823 289.147C203.546 290.307 202.889 292.228 202.889 294.91C202.889 297.629 203.509 299.514 204.786 300.601C206.063 301.689 208.106 302.232 210.952 302.232H217.483V318H198.912V314.81H212.594V305.64H210.113C206.464 305.64 203.546 304.806 201.32 303.139C199.095 301.471 198 298.716 198 294.91Z" fill="#222222"/>
<path d="M42 41.0896C42 44.5694 40.9055 47.2517 38.7164 49.1365C36.5274 51.0214 33.9005 52 30.7629 52C25.9835 52 22.408 50.2602 20 46.8166L24.0133 44.7868C25.3997 47.3241 27.6252 48.5928 30.7264 48.5928C32.4047 48.5928 33.9005 48.0128 35.1775 46.8529C36.4544 45.693 37.1111 43.7719 37.1111 41.0896C37.1111 38.371 36.4909 36.4861 35.214 35.3987C33.937 34.3113 31.8939 33.7675 29.0481 33.7675H22.5174V18H41.0879V21.1897H27.4063V30.3603H29.8872C33.5356 30.3603 36.4544 31.194 38.6799 32.8614C40.9055 34.5287 42 37.2836 42 41.0896Z" fill="#222222"/>
<path d="M209.011 267.203C208.246 269.151 206.61 270.639 204.579 270.639C202.868 270.639 201.462 269.735 200.317 268.508C198.796 266.879 198.119 263.138 200.938 260.318C202.369 258.888 208.994 252 208.994 252C208.994 252 215.619 258.888 217.049 260.319C219.869 263.138 219.225 266.879 217.67 268.508C216.512 269.722 215.12 270.639 213.409 270.639C211.377 270.639 209.775 269.151 209.011 267.203Z" fill="#D71E00"/>
<path d="M30.9895 69.4362C31.7541 67.4882 33.3898 66 35.4214 66C37.1321 66 38.538 66.9046 39.6827 68.1309C41.2037 69.76 41.8813 73.5016 39.0618 76.3207C37.6314 77.7511 31.0061 84.639 31.0061 84.639C31.0061 84.639 24.3811 77.7511 22.9507 76.3206C20.1312 73.5016 20.7753 69.7599 22.3298 68.1308C23.4876 66.9174 24.8804 66 26.5911 66C28.6227 66 30.2249 67.4882 30.9895 69.4362Z" fill="#D71E00"/>
<path d="M119.958 144.745C123.016 136.953 129.559 131 137.686 131C144.528 131 150.152 134.618 154.731 139.523C160.815 146.04 163.525 161.006 152.247 172.283C146.526 178.004 120.024 205.556 120.024 205.556C120.024 205.556 93.5244 178.004 87.8027 172.283C76.525 161.006 79.1012 146.04 85.3191 139.523C89.9504 134.67 95.5216 131 102.364 131C110.491 131 116.899 136.953 119.958 144.745Z" fill="#D71E00"/>
</svg>
