<svg width="240" height="336" viewBox="0 0 240 336" fill="none" xmlns="http://www.w3.org/2000/svg">
<rect width="240" height="336" rx="11" fill="white"/>
<rect width="240" height="336" rx="11" fill="white"/>
<path d="M198.037 294.523C198.037 290.894 199.028 288.209 201.047 286.54C203.066 284.871 205.563 284 208.5 284C211.29 284 213.713 284.835 215.843 286.54C217.935 288.209 219 290.894 219 294.523V299.422H214.08V294.487C214.08 291.801 213.53 289.951 212.428 288.899C211.327 287.846 210.042 287.375 208.5 287.375C206.811 287.375 205.453 287.883 204.425 288.899C203.397 289.915 202.92 291.765 202.92 294.487V318H198V294.523H198.037Z" fill="#222222"/>
<path d="M41.9633 41.4771C41.9633 45.1057 40.9721 47.7909 38.9528 49.46C36.9336 51.1292 34.4371 52 31.5 52C28.7098 52 26.2867 51.1655 24.1574 49.46C22.0647 47.7909 21 45.1057 21 41.4771V36.5784H25.9196V41.5134C25.9196 44.1986 26.4703 46.0492 27.5717 47.1015C28.6731 48.1538 29.9581 48.6254 31.5 48.6254C33.1888 48.6254 34.5472 48.1175 35.5752 47.1015C36.6031 46.0855 37.0804 44.2348 37.0804 41.5134V18H42V41.4771H41.9633Z" fill="#222222"/>
<path d="M209.011 267.203C208.246 269.151 206.61 270.639 204.579 270.639C202.868 270.639 201.462 269.735 200.317 268.508C198.796 266.879 198.119 263.138 200.938 260.318C202.369 258.888 208.994 252 208.994 252C208.994 252 215.619 258.888 217.049 260.319C219.869 263.138 219.225 266.879 217.67 268.508C216.512 269.722 215.12 270.639 213.409 270.639C211.377 270.639 209.775 269.151 209.011 267.203Z" fill="#D71E00"/>
<path d="M30.9895 69.4362C31.7541 67.4882 33.3898 66 35.4214 66C37.1321 66 38.538 66.9046 39.6827 68.1309C41.2037 69.76 41.8813 73.5016 39.0618 76.3207C37.6314 77.7511 31.0061 84.639 31.0061 84.639C31.0061 84.639 24.3811 77.7511 22.9507 76.3206C20.1312 73.5016 20.7753 69.7599 22.3298 68.1308C23.4876 66.9174 24.8804 66 26.5911 66C28.6227 66 30.2249 67.4882 30.9895 69.4362Z" fill="#D71E00"/>
<path d="M119.958 144.745C123.016 136.953 129.559 131 137.686 131C144.528 131 150.152 134.618 154.731 139.523C160.815 146.04 163.525 161.006 152.247 172.283C146.526 178.004 120.024 205.556 120.024 205.556C120.024 205.556 93.5244 178.004 87.8027 172.283C76.525 161.006 79.1012 146.04 85.3191 139.523C89.9504 134.67 95.5216 131 102.364 131C110.491 131 116.899 136.953 119.958 144.745Z" fill="#D71E00"/>
</svg>
