<svg width="240" height="336" viewBox="0 0 240 336" fill="none" xmlns="http://www.w3.org/2000/svg">
<rect width="240" height="336" rx="11" fill="white"/>
<rect width="240" height="336" rx="11" fill="white"/>
<path d="M198 293.37C198 288.175 200.051 284.811 204.153 283.279L200.908 277H206.203L209 282.457C212.244 282.457 214.892 283.354 216.942 285.11C218.993 286.867 220 289.633 220 293.407V307.087C220 310.861 218.993 313.627 216.942 315.384C214.892 317.14 212.244 318 209 318C205.756 318 203.108 317.14 201.058 315.384C199.007 313.627 198 310.861 198 307.087V293.37ZM202.997 293.557V307.012C202.997 309.852 203.519 311.796 204.6 312.88C205.681 313.926 207.173 314.449 209.037 314.449C210.902 314.449 212.393 313.926 213.437 312.88C214.481 311.833 215.003 309.852 215.003 307.012V293.557C215.003 290.567 214.481 288.549 213.437 287.502C212.393 286.456 210.902 285.932 209 285.932C207.136 285.932 205.681 286.456 204.6 287.502C203.519 288.586 202.997 290.604 202.997 293.557Z" fill="#222222"/>
<path d="M42 42.6299C42 47.825 39.9491 51.1887 35.8474 52.7211L39.0915 59H33.7966L31 53.5433C27.7559 53.5433 25.1085 52.6463 23.0576 50.8896C21.0068 49.133 20 46.3674 20 42.5926V28.9134C20 25.1386 21.0068 22.3729 23.0576 20.6163C25.1085 18.8597 27.7559 18 31 18C34.244 18 36.8915 18.8597 38.9423 20.6163C40.9932 22.3729 42 25.1386 42 28.9134V42.6299ZM37.0034 42.4431V28.9882C37.0034 26.1477 36.4813 24.2042 35.4 23.1203C34.3186 22.0738 32.8271 21.5506 30.9627 21.5506C29.0983 21.5506 27.6068 22.0738 26.5627 23.1203C25.5187 24.1668 24.9966 26.1477 24.9966 28.9882V42.4431C24.9966 45.433 25.5187 47.4512 26.5627 48.4977C27.6068 49.5442 29.0983 50.0675 31 50.0675C32.8644 50.0675 34.3186 49.5442 35.4 48.4977C36.4813 47.4139 37.0034 45.3957 37.0034 42.4431Z" fill="#222222"/>
<path d="M209.011 267.203C208.246 269.151 206.61 270.639 204.579 270.639C202.868 270.639 201.462 269.735 200.317 268.508C198.796 266.879 198.119 263.138 200.938 260.318C202.369 258.888 208.994 252 208.994 252C208.994 252 215.619 258.888 217.049 260.319C219.869 263.138 219.225 266.879 217.67 268.508C216.512 269.722 215.12 270.639 213.409 270.639C211.377 270.639 209.775 269.151 209.011 267.203Z" fill="#D71E00"/>
<path d="M30.9895 69.4362C31.7541 67.4882 33.3898 66 35.4214 66C37.1321 66 38.538 66.9046 39.6827 68.1309C41.2037 69.76 41.8813 73.5016 39.0618 76.3207C37.6314 77.7511 31.0061 84.639 31.0061 84.639C31.0061 84.639 24.3811 77.7511 22.9507 76.3206C20.1312 73.5016 20.7753 69.7599 22.3298 68.1308C23.4876 66.9174 24.8804 66 26.5911 66C28.6227 66 30.2249 67.4882 30.9895 69.4362Z" fill="#D71E00"/>
<path d="M119.958 144.745C123.016 136.953 129.559 131 137.686 131C144.528 131 150.152 134.618 154.731 139.523C160.815 146.04 163.525 161.006 152.247 172.283C146.526 178.004 120.024 205.556 120.024 205.556C120.024 205.556 93.5244 178.004 87.8027 172.283C76.525 161.006 79.1012 146.04 85.3191 139.523C89.9504 134.67 95.5216 131 102.364 131C110.491 131 116.899 136.953 119.958 144.745Z" fill="#D71E00"/>
</svg>
