<svg width="240" height="336" viewBox="0 0 240 336" fill="none" xmlns="http://www.w3.org/2000/svg">
<rect width="240" height="336" rx="11" fill="white"/>
<rect width="240" height="336" rx="11" fill="white"/>
<path d="M220 307.29C220 310.676 218.978 313.326 216.899 315.203C214.856 317.08 212.229 318 209.018 318C206.027 318 203.473 317.08 201.284 315.203C199.095 313.326 198 310.198 198 305.745V295.697C198 291.391 199.058 288.226 201.138 286.128C203.217 284.067 206.027 283 209.529 283C213.469 283 216.68 284.546 219.197 287.674L215.184 289.698C213.944 287.527 212.083 286.459 209.566 286.459C207.486 286.459 205.844 287.122 204.677 288.41C203.509 289.698 202.889 292.127 202.889 295.624V300.371C204.531 297.869 207.085 296.617 210.478 296.617C213.323 296.617 215.622 297.537 217.373 299.341C219.124 301.144 220 303.794 220 307.29ZM215.075 307.327C215.075 304.53 214.564 302.616 213.542 301.623C212.521 300.629 211.207 300.114 209.566 300.114C206.063 300.114 203.801 301.88 202.852 305.376C202.852 309.278 203.436 311.78 204.604 312.884C205.771 313.988 207.231 314.54 208.982 314.54C210.66 314.54 212.083 313.988 213.287 312.884C214.491 311.78 215.075 309.903 215.075 307.327Z" fill="#222222"/>
<path d="M20 28.7098C20 25.3239 21.0215 22.674 23.1011 20.797C25.1442 18.92 27.7711 18 30.9817 18C33.9734 18 36.5273 18.92 38.7164 20.797C40.9054 22.674 42 25.8023 42 30.2555V40.3029C42 44.6089 40.942 47.774 38.8624 49.8718C36.7827 51.9328 33.9735 53 30.471 53C26.5307 53 23.3201 51.4543 20.8027 48.326L24.8159 46.3019C26.0564 48.4733 27.9171 49.5406 30.4345 49.5406C32.5141 49.5406 34.1559 48.878 35.3234 47.5899C36.4909 46.3018 37.1111 43.8728 37.1111 40.3764V35.6288C35.4693 38.1314 32.9154 39.3828 29.5224 39.3828C26.6766 39.3828 24.3781 38.4627 22.6269 36.6594C20.8756 34.856 20 32.2061 20 28.7098ZM24.9253 28.673C24.9253 31.47 25.4361 33.3838 26.4577 34.3775C27.4792 35.3712 28.7927 35.8864 30.4345 35.8864C33.937 35.8864 36.199 34.1199 37.1476 30.6236C37.1476 26.7224 36.5639 24.2197 35.3964 23.1156C34.2289 22.0115 32.7694 21.4595 31.0182 21.4595C29.3399 21.4595 27.9171 22.0115 26.7131 23.1156C25.5091 24.2197 24.9253 26.0967 24.9253 28.673Z" fill="#222222"/>
<path d="M206.963 253.3C206.244 252.606 205.813 252.177 204.526 252.23C202.631 252.308 200.871 253.34 199.89 254.964C198.2 257.764 199.124 260.566 200.923 262.235L208.271 270.028C208.685 270.407 209.321 270.407 209.735 270.028L217.189 262.235C218.938 260.612 219.685 257.919 218.224 255.197C217.296 253.469 215.532 252.305 213.572 252.23C212.296 252.181 211.794 252.607 211.055 253.297C210.861 253.478 210.542 253.342 210.542 253.076L210.542 251.769C210.542 251.064 210.726 250.371 211.076 249.759L211.752 248.575C211.898 248.319 211.713 248 211.418 248H206.588C206.293 248 206.107 248.319 206.254 248.575L206.93 249.759C207.28 250.371 207.464 251.064 207.464 251.769V253.089C207.464 253.35 207.15 253.481 206.963 253.3Z" fill="black"/>
<path d="M33.0374 83.0125C33.7561 83.707 34.1866 84.1352 35.4739 84.0821C37.3695 84.0044 39.1292 82.9725 40.1095 81.3482C41.7996 78.5481 40.8755 75.7465 39.0765 74.0776L31.7289 66.2845C31.3146 65.9052 30.6794 65.9052 30.265 66.2845L22.8105 74.0776C21.0615 75.7 20.3151 78.3939 21.7763 81.1155C22.7039 82.8433 24.4683 84.0075 26.4277 84.0829C27.7039 84.1317 28.2059 83.7055 28.945 83.0156C29.1393 82.834 29.4579 82.9706 29.4579 83.2369L29.4583 84.5438C29.4583 85.2486 29.274 85.9415 28.9242 86.5536L28.2479 87.737C28.1017 87.9936 28.2868 88.3126 28.5822 88.3126H33.4117C33.7072 88.3126 33.8926 87.9936 33.746 87.737L33.0697 86.5536C32.72 85.9415 32.5361 85.2486 32.5361 84.5438V83.2234C32.5361 82.9629 32.85 82.8317 33.0374 83.0125Z" fill="black"/>
<path d="M128.15 191.05C131.024 193.828 132.746 195.541 137.896 195.328C145.478 195.018 152.517 190.89 156.438 184.393C163.199 173.193 159.502 161.986 152.306 155.31L122.916 124.138C121.258 122.621 118.717 122.621 117.06 124.138L87.242 155.31C80.2461 161.8 77.2605 172.576 83.1053 183.462C86.8156 190.373 93.8732 195.03 101.711 195.332C106.816 195.527 108.824 193.822 111.78 191.063C112.557 190.336 113.831 190.882 113.831 191.947L113.833 197.175C113.833 199.994 113.096 202.766 111.697 205.214L108.991 209.948C108.407 210.975 109.147 212.25 110.329 212.25H129.647C130.829 212.25 131.57 210.975 130.984 209.948L128.279 205.214C126.88 202.766 126.144 199.994 126.144 197.175V191.894C126.144 190.852 127.4 190.327 128.15 191.05Z" fill="black"/>
</svg>
