<svg width="240" height="336" viewBox="0 0 240 336" fill="none" xmlns="http://www.w3.org/2000/svg">
<rect width="240" height="336" rx="11" fill="white"/>
<rect width="240" height="336" rx="11" fill="white"/>
<path d="M220 288.637L216.016 290.7C214.639 287.863 212.14 286.463 208.482 286.463C206.598 286.463 205.005 286.979 203.737 288.01C202.469 289.042 201.817 290.884 201.817 293.5C201.817 295.968 202.578 297.663 204.063 298.547C205.548 299.432 207.323 299.874 209.315 299.874H211.452V303.116H209.315C207.613 303.116 206.091 303.595 204.751 304.516C203.375 305.474 202.723 306.947 202.723 308.937C202.723 310.889 203.266 312.326 204.353 313.21C205.439 314.095 206.816 314.537 208.482 314.537C211.561 314.537 213.806 313.137 215.146 310.3L219.131 312.363C216.45 316.121 212.901 318 208.446 318C205.331 318 202.759 317.189 200.803 315.532C198.847 313.874 197.869 311.7 197.869 308.937C197.869 305.289 199.789 302.784 203.665 301.495C199.21 300.5 197 297.847 197 293.5C197 290.074 198.087 287.458 200.26 285.689C202.433 283.921 205.15 283 208.482 283C213.48 283 217.32 284.879 220 288.637Z" fill="#222222"/>
<path d="M20 47.3632L23.9843 45.3C25.3606 48.1369 27.8598 49.5369 31.5181 49.5369C33.4015 49.5369 34.9952 49.0211 36.2629 47.9895C37.5307 46.9579 38.1826 45.1159 38.1826 42.5001C38.1826 40.0317 37.422 38.3368 35.937 37.4526C34.4519 36.5684 32.6771 36.1264 30.685 36.1264H28.548V32.8842H30.685C32.3873 32.8842 33.9086 32.4053 35.2488 31.4842C36.6252 30.5263 37.2771 29.0527 37.2771 27.0632C37.2771 25.1106 36.7339 23.6738 35.6473 22.7895C34.5606 21.9053 33.1842 21.4632 31.5181 21.4632C28.4393 21.4632 26.1937 22.8633 24.8535 25.7001L20.8693 23.6368C23.5496 19.8789 27.0992 18 31.5543 18C34.6693 18 37.2409 18.8106 39.1968 20.4685C41.1527 22.1264 42.1306 24.3001 42.1306 27.0632C42.1306 30.7106 40.2109 33.2158 36.3353 34.5053C40.7905 35.5 43 38.1527 43 42.5001C43 45.9264 41.9133 48.5422 39.7401 50.3106C37.5668 52.079 34.8504 53 31.5181 53C26.5197 53 22.6803 51.1211 20 47.3632Z" fill="#222222"/>
<path d="M206.963 253.3C206.244 252.606 205.813 252.177 204.526 252.23C202.631 252.308 200.871 253.34 199.89 254.964C198.2 257.764 199.124 260.566 200.923 262.235L208.271 270.028C208.685 270.407 209.321 270.407 209.735 270.028L217.189 262.235C218.938 260.612 219.685 257.919 218.224 255.197C217.296 253.469 215.532 252.305 213.572 252.23C212.296 252.181 211.794 252.607 211.055 253.297C210.861 253.478 210.542 253.342 210.542 253.076L210.542 251.769C210.542 251.064 210.726 250.371 211.076 249.759L211.752 248.575C211.898 248.319 211.713 248 211.418 248H206.588C206.293 248 206.107 248.319 206.254 248.575L206.93 249.759C207.28 250.371 207.464 251.064 207.464 251.769V253.089C207.464 253.35 207.15 253.481 206.963 253.3Z" fill="black"/>
<path d="M33.0374 83.0125C33.7561 83.707 34.1866 84.1352 35.4739 84.0821C37.3695 84.0044 39.1292 82.9725 40.1095 81.3482C41.7996 78.5481 40.8755 75.7465 39.0765 74.0776L31.7289 66.2845C31.3146 65.9052 30.6794 65.9052 30.265 66.2845L22.8105 74.0776C21.0615 75.7 20.3151 78.3939 21.7763 81.1155C22.7039 82.8433 24.4683 84.0075 26.4277 84.0829C27.7039 84.1317 28.2059 83.7055 28.945 83.0156C29.1393 82.834 29.4579 82.9706 29.4579 83.2369L29.4583 84.5438C29.4583 85.2486 29.274 85.9415 28.9242 86.5536L28.2479 87.737C28.1017 87.9936 28.2868 88.3126 28.5822 88.3126H33.4117C33.7072 88.3126 33.8926 87.9936 33.746 87.737L33.0697 86.5536C32.72 85.9415 32.5361 85.2486 32.5361 84.5438V83.2234C32.5361 82.9629 32.85 82.8317 33.0374 83.0125Z" fill="black"/>
<path d="M128.15 191.05C131.024 193.828 132.746 195.541 137.896 195.328C145.478 195.018 152.517 190.89 156.438 184.393C163.199 173.193 159.502 161.986 152.306 155.31L122.916 124.138C121.258 122.621 118.717 122.621 117.06 124.138L87.242 155.31C80.2461 161.8 77.2605 172.576 83.1053 183.462C86.8156 190.373 93.8732 195.03 101.711 195.332C106.816 195.527 108.824 193.822 111.78 191.063C112.557 190.336 113.831 190.882 113.831 191.947L113.833 197.175C113.833 199.994 113.096 202.766 111.697 205.214L108.991 209.948C108.407 210.975 109.147 212.25 110.329 212.25H129.647C130.829 212.25 131.57 210.975 130.984 209.948L128.279 205.214C126.88 202.766 126.144 199.994 126.144 197.175V191.894C126.144 190.852 127.4 190.327 128.15 191.05Z" fill="black"/>
</svg>
