<svg width="240" height="336" viewBox="0 0 240 336" fill="none" xmlns="http://www.w3.org/2000/svg">
<rect width="240" height="336" rx="11" fill="white"/>
<rect width="240" height="336" rx="11" fill="white"/>
<path d="M198 293.673C198 290.287 199.022 287.637 201.101 285.797C203.144 283.92 205.771 283 208.982 283C211.973 283 214.527 283.92 216.716 285.797C218.905 287.674 220 290.802 220 295.255V305.303C220 309.609 218.942 312.774 216.862 314.872C214.783 316.969 211.974 318 208.471 318C204.531 318 201.32 316.454 198.803 313.326L202.816 311.155C204.056 313.4 205.917 314.504 208.435 314.504C210.514 314.504 212.156 313.841 213.323 312.516C214.491 311.191 215.111 308.799 215.111 305.266V300.518C213.36 303.021 210.842 304.272 207.522 304.272C204.677 304.272 202.378 303.352 200.627 301.549C198.876 299.745 198 297.169 198 293.673ZM202.889 293.71C202.889 296.47 203.4 298.347 204.421 299.377C205.443 300.371 206.756 300.886 208.398 300.886C211.9 300.886 214.126 299.267 215.075 296.028C215.075 291.87 214.491 289.257 213.323 288.152C212.156 287.048 210.696 286.496 208.945 286.496C207.267 286.496 205.808 287.048 204.64 288.152C203.473 289.257 202.889 291.097 202.889 293.71Z" fill="#222222"/>
<path d="M42 42.327C42 45.7129 40.9784 48.3628 38.8988 50.203C36.8557 52.08 34.2288 53 31.0182 53C28.0265 53 25.4727 52.08 23.2836 50.203C21.0946 48.326 20 45.1977 20 40.7445V30.6971C20 26.3911 21.058 23.2261 23.1376 21.1283C25.2172 19.0305 28.0265 18 31.529 18C35.4692 18 38.6799 19.5457 41.1973 22.674L37.1841 24.8454C35.9436 22.6004 34.0829 21.4963 31.5655 21.4963C29.4859 21.4963 27.8441 22.1588 26.6766 23.4837C25.5091 24.8086 24.8889 27.2008 24.8889 30.734V35.4816C26.6402 32.979 29.1575 31.7276 32.4776 31.7276C35.3233 31.7276 37.6219 32.6478 39.3731 34.4511C41.1244 36.2545 42 38.8307 42 42.327ZM37.1111 42.2903C37.1111 39.53 36.6003 37.653 35.5788 36.6225C34.5572 35.6288 33.2438 35.1136 31.602 35.1136C28.0995 35.1136 25.8739 36.733 24.9253 39.9717C24.9253 44.1305 25.5091 46.7434 26.6766 47.8475C27.8441 48.9516 29.3035 49.5037 31.0548 49.5037C32.733 49.5037 34.1924 48.9516 35.3599 47.8475C36.5273 46.7434 37.1111 44.9033 37.1111 42.2903Z" fill="#222222"/>
<path d="M206.963 253.3C206.244 252.606 205.813 252.177 204.526 252.23C202.631 252.308 200.871 253.34 199.89 254.964C198.2 257.764 199.124 260.566 200.923 262.235L208.271 270.028C208.685 270.407 209.321 270.407 209.735 270.028L217.189 262.235C218.938 260.612 219.685 257.919 218.224 255.197C217.296 253.469 215.532 252.305 213.572 252.23C212.296 252.181 211.794 252.607 211.055 253.297C210.861 253.478 210.542 253.342 210.542 253.076L210.542 251.769C210.542 251.064 210.726 250.371 211.076 249.759L211.752 248.575C211.898 248.319 211.713 248 211.418 248H206.588C206.293 248 206.107 248.319 206.254 248.575L206.93 249.759C207.28 250.371 207.464 251.064 207.464 251.769V253.089C207.464 253.35 207.15 253.481 206.963 253.3Z" fill="black"/>
<path d="M33.0374 83.0125C33.7561 83.707 34.1866 84.1352 35.4739 84.0821C37.3695 84.0044 39.1292 82.9725 40.1095 81.3482C41.7996 78.5481 40.8755 75.7465 39.0765 74.0776L31.7289 66.2845C31.3146 65.9052 30.6794 65.9052 30.265 66.2845L22.8105 74.0776C21.0615 75.7 20.3151 78.3939 21.7763 81.1155C22.7039 82.8433 24.4683 84.0075 26.4277 84.0829C27.7039 84.1317 28.2059 83.7055 28.945 83.0156C29.1393 82.834 29.4579 82.9706 29.4579 83.2369L29.4583 84.5438C29.4583 85.2486 29.274 85.9415 28.9242 86.5536L28.2479 87.737C28.1017 87.9936 28.2868 88.3126 28.5822 88.3126H33.4117C33.7072 88.3126 33.8926 87.9936 33.746 87.737L33.0697 86.5536C32.72 85.9415 32.5361 85.2486 32.5361 84.5438V83.2234C32.5361 82.9629 32.85 82.8317 33.0374 83.0125Z" fill="black"/>
<path d="M128.15 191.05C131.024 193.828 132.746 195.541 137.896 195.328C145.478 195.018 152.517 190.89 156.438 184.393C163.199 173.193 159.502 161.986 152.306 155.31L122.916 124.138C121.258 122.621 118.717 122.621 117.06 124.138L87.242 155.31C80.2461 161.8 77.2605 172.576 83.1053 183.462C86.8156 190.373 93.8732 195.03 101.711 195.332C106.816 195.527 108.824 193.822 111.78 191.063C112.557 190.336 113.831 190.882 113.831 191.947L113.833 197.175C113.833 199.994 113.096 202.766 111.697 205.214L108.991 209.948C108.407 210.975 109.147 212.25 110.329 212.25H129.647C130.829 212.25 131.57 210.975 130.984 209.948L128.279 205.214C126.88 202.766 126.144 199.994 126.144 197.175V191.894C126.144 190.852 127.4 190.327 128.15 191.05Z" fill="black"/>
</svg>
