<svg width="240" height="336" viewBox="0 0 240 336" fill="none" xmlns="http://www.w3.org/2000/svg">
<rect width="240" height="336" rx="11" fill="white"/>
<rect width="240" height="336" rx="11" fill="white"/>
<path d="M198 294.91C198 291.431 199.095 288.748 201.284 286.863C203.473 284.979 206.099 284 209.237 284C214.017 284 217.592 285.74 220 289.183L215.987 291.213C214.6 288.676 212.375 287.407 209.274 287.407C207.595 287.407 206.099 287.987 204.823 289.147C203.546 290.307 202.889 292.228 202.889 294.91C202.889 297.629 203.509 299.514 204.786 300.601C206.063 301.689 208.106 302.232 210.952 302.232H217.483V318H198.912V314.81H212.594V305.64H210.113C206.464 305.64 203.546 304.806 201.32 303.139C199.095 301.471 198 298.716 198 294.91Z" fill="#222222"/>
<path d="M42 41.0896C42 44.5694 40.9055 47.2517 38.7164 49.1365C36.5274 51.0214 33.9005 52 30.7629 52C25.9835 52 22.408 50.2602 20 46.8166L24.0133 44.7868C25.3997 47.3241 27.6252 48.5928 30.7264 48.5928C32.4047 48.5928 33.9005 48.0128 35.1775 46.8529C36.4544 45.693 37.1111 43.7719 37.1111 41.0896C37.1111 38.371 36.4909 36.4861 35.214 35.3987C33.937 34.3113 31.8939 33.7675 29.0481 33.7675H22.5174V18H41.0879V21.1897H27.4063V30.3603H29.8872C33.5356 30.3603 36.4544 31.194 38.6799 32.8614C40.9055 34.5287 42 37.2836 42 41.0896Z" fill="#222222"/>
<path d="M206.963 252.3C206.244 251.606 205.813 251.177 204.526 251.23C202.631 251.308 200.871 252.34 199.89 253.964C198.2 256.764 199.124 259.566 200.923 261.235L208.271 269.028C208.685 269.407 209.321 269.407 209.735 269.028L217.189 261.235C218.938 259.612 219.685 256.919 218.224 254.197C217.296 252.469 215.532 251.305 213.572 251.23C212.296 251.181 211.794 251.607 211.055 252.297C210.861 252.478 210.542 252.342 210.542 252.076L210.542 250.769C210.542 250.064 210.726 249.371 211.076 248.759L211.752 247.575C211.898 247.319 211.713 247 211.418 247H206.588C206.293 247 206.107 247.319 206.254 247.575L206.93 248.759C207.28 249.371 207.464 250.064 207.464 250.769V252.089C207.464 252.35 207.15 252.481 206.963 252.3Z" fill="black"/>
<path d="M33.0374 83.0125C33.7561 83.707 34.1866 84.1352 35.4739 84.0821C37.3695 84.0044 39.1292 82.9725 40.1095 81.3482C41.7996 78.5481 40.8755 75.7465 39.0765 74.0776L31.7289 66.2845C31.3146 65.9052 30.6794 65.9052 30.265 66.2845L22.8105 74.0776C21.0615 75.7 20.3151 78.3939 21.7763 81.1155C22.7039 82.8433 24.4683 84.0075 26.4277 84.0829C27.7039 84.1317 28.2059 83.7055 28.945 83.0156C29.1393 82.834 29.4579 82.9706 29.4579 83.2369L29.4583 84.5438C29.4583 85.2486 29.274 85.9415 28.9242 86.5536L28.2479 87.737C28.1017 87.9936 28.2868 88.3126 28.5822 88.3126H33.4117C33.7072 88.3126 33.8926 87.9936 33.746 87.737L33.0697 86.5536C32.72 85.9415 32.5361 85.2486 32.5361 84.5438V83.2234C32.5361 82.9629 32.85 82.8317 33.0374 83.0125Z" fill="black"/>
<path d="M128.15 191.05C131.024 193.828 132.746 195.541 137.896 195.328C145.478 195.018 152.517 190.89 156.438 184.393C163.199 173.193 159.502 161.986 152.306 155.31L122.916 124.138C121.258 122.621 118.717 122.621 117.06 124.138L87.242 155.31C80.2461 161.8 77.2605 172.576 83.1053 183.462C86.8156 190.373 93.8732 195.03 101.711 195.332C106.816 195.527 108.824 193.822 111.78 191.063C112.557 190.336 113.831 190.882 113.831 191.947L113.833 197.175C113.833 199.994 113.096 202.766 111.697 205.214L108.991 209.948C108.407 210.975 109.147 212.25 110.329 212.25H129.647C130.829 212.25 131.57 210.975 130.984 209.948L128.279 205.214C126.88 202.766 126.144 199.994 126.144 197.175V191.894C126.144 190.852 127.4 190.327 128.15 191.05Z" fill="black"/>
</svg>
