<svg width="240" height="336" viewBox="0 0 240 336" fill="none" xmlns="http://www.w3.org/2000/svg">
<rect width="240" height="336" rx="11" fill="white"/>
<rect width="240" height="336" rx="11" fill="white"/>
<path fill-rule="evenodd" clip-rule="evenodd" d="M214 309C214 313.971 209.971 318 205 318C200.029 318 196 313.971 196 309V291.5C196 286.529 200.029 282.5 205 282.5C209.971 282.5 214 286.529 214 291.5V309ZM209 310.5C209 312.709 207.209 314.5 205 314.5C202.791 314.5 201 312.709 201 310.5V290C201 287.791 202.791 286 205 286C207.209 286 209 287.791 209 290V310.5Z" fill="#222222"/>
<path d="M217.226 317H222V283H217.226V317Z" fill="#222222"/>
<path fill-rule="evenodd" clip-rule="evenodd" d="M26 27C26 22.0294 30.0294 18 35 18C39.9706 18 44 22.0294 44 27V44.5C44 49.4706 39.9706 53.5 35 53.5C30.0294 53.5 26 49.4706 26 44.5V27ZM31 25.5C31 23.2909 32.7909 21.5 35 21.5C37.2091 21.5 39 23.2909 39 25.5V46C39 48.2091 37.2091 50 35 50C32.7909 50 31 48.2091 31 46V25.5Z" fill="#222222"/>
<path d="M22.7743 19H18V53H22.7743V19Z" fill="#222222"/>
<path d="M206.963 253.3C206.244 252.606 205.813 252.177 204.526 252.23C202.631 252.308 200.871 253.34 199.89 254.964C198.2 257.764 199.124 260.566 200.923 262.235L208.271 270.028C208.685 270.407 209.321 270.407 209.735 270.028L217.189 262.235C218.938 260.612 219.685 257.919 218.224 255.197C217.296 253.469 215.532 252.305 213.572 252.23C212.296 252.181 211.794 252.607 211.055 253.297C210.861 253.478 210.542 253.342 210.542 253.076L210.542 251.769C210.542 251.064 210.726 250.371 211.076 249.759L211.752 248.575C211.898 248.319 211.713 248 211.418 248H206.588C206.293 248 206.107 248.319 206.254 248.575L206.93 249.759C207.28 250.371 207.464 251.064 207.464 251.769V253.089C207.464 253.35 207.15 253.481 206.963 253.3Z" fill="black"/>
<path d="M33.0374 83.0125C33.7561 83.707 34.1866 84.1352 35.4739 84.0821C37.3695 84.0044 39.1292 82.9725 40.1095 81.3482C41.7996 78.5481 40.8755 75.7465 39.0765 74.0776L31.7289 66.2845C31.3146 65.9052 30.6794 65.9052 30.265 66.2845L22.8105 74.0776C21.0615 75.7 20.3151 78.3939 21.7763 81.1155C22.7039 82.8433 24.4683 84.0075 26.4277 84.0829C27.7039 84.1317 28.2059 83.7055 28.945 83.0156C29.1393 82.834 29.4579 82.9706 29.4579 83.2369L29.4583 84.5438C29.4583 85.2486 29.274 85.9415 28.9242 86.5536L28.2479 87.737C28.1017 87.9936 28.2868 88.3126 28.5822 88.3126H33.4117C33.7072 88.3126 33.8926 87.9936 33.746 87.737L33.0697 86.5536C32.72 85.9415 32.5361 85.2486 32.5361 84.5438V83.2234C32.5361 82.9629 32.85 82.8317 33.0374 83.0125Z" fill="black"/>
<path d="M128.15 191.05C131.024 193.828 132.746 195.541 137.896 195.328C145.478 195.018 152.517 190.89 156.438 184.393C163.199 173.193 159.502 161.986 152.306 155.31L122.916 124.138C121.258 122.621 118.717 122.621 117.06 124.138L87.242 155.31C80.2461 161.8 77.2605 172.576 83.1053 183.462C86.8156 190.373 93.8732 195.03 101.711 195.332C106.816 195.527 108.824 193.822 111.78 191.063C112.557 190.336 113.831 190.882 113.831 191.947L113.833 197.175C113.833 199.994 113.096 202.766 111.697 205.214L108.991 209.948C108.407 210.975 109.147 212.25 110.329 212.25H129.647C130.829 212.25 131.57 210.975 130.984 209.948L128.279 205.214C126.88 202.766 126.144 199.994 126.144 197.175V191.894C126.144 190.852 127.4 190.327 128.15 191.05Z" fill="black"/>
</svg>
