<svg width="240" height="336" viewBox="0 0 240 336" fill="none" xmlns="http://www.w3.org/2000/svg">
<rect width="240" height="336" rx="11" fill="white"/>
<rect width="240" height="336" rx="11" fill="white"/>
<path d="M208.536 283C211.827 283 214.575 283.81 216.745 285.468C218.915 287.126 220 289.337 220 292.1C220 296.3 217.505 299.505 212.55 301.716C216.745 304 218.843 306.689 218.843 309.821C218.843 312.289 217.866 314.279 215.877 315.753C213.888 317.226 211.465 318 208.536 318C205.571 318 203.112 317.263 201.123 315.753C199.134 314.242 198.157 312.253 198.157 309.821C198.157 306.726 200.255 304.037 204.45 301.716C199.495 299.505 197 296.3 197 292.1C197 289.3 198.085 287.089 200.255 285.468C202.425 283.847 205.173 283 208.536 283ZM208.536 299.579C212.948 297.884 215.154 295.416 215.154 292.137C215.154 290.074 214.539 288.637 213.31 287.753C212.08 286.905 210.489 286.463 208.536 286.463C206.547 286.463 204.92 286.905 203.69 287.753C202.461 288.6 201.846 290.074 201.846 292.137C201.846 295.379 204.088 297.884 208.536 299.579ZM208.536 314.574C210.127 314.574 211.429 314.168 212.478 313.358C213.491 312.547 213.997 311.368 213.997 309.821C213.997 307.316 212.189 305.179 208.536 303.447C204.847 305.216 203.039 307.316 203.039 309.821C203.039 311.368 203.546 312.547 204.558 313.358C205.571 314.168 206.873 314.574 208.536 314.574Z" fill="#222222"/>
<path d="M31.4638 53C28.1729 53 25.4246 52.1895 23.2547 50.5316C21.0849 48.8737 20 46.6632 20 43.9C20 39.7 22.4953 36.4948 27.4497 34.2843C23.2547 32 21.1573 29.3105 21.1573 26.179C21.1573 23.7105 22.1336 21.7211 24.1226 20.2474C26.1116 18.7737 28.5346 18 31.4638 18C34.4292 18 36.8884 18.7369 38.8774 20.2474C40.8664 21.758 41.8428 23.7474 41.8428 26.179C41.8428 29.2737 39.7453 31.9632 35.5503 34.2843C40.5047 36.4948 43 39.7 43 43.9C43 46.7 41.9151 48.9106 39.7453 50.5316C37.5755 52.1527 34.827 53 31.4638 53ZM31.4638 36.4211C27.0519 38.1158 24.8459 40.5843 24.8459 43.8632C24.8459 45.9264 25.4607 47.3632 26.6903 48.2474C27.9198 49.0948 29.511 49.5369 31.4638 49.5369C33.4528 49.5369 35.0802 49.0948 36.3098 48.2474C37.5393 47.4001 38.1541 45.9264 38.1541 43.8632C38.1541 40.6211 35.9119 38.1158 31.4638 36.4211ZM31.4638 21.4264C29.8726 21.4264 28.5708 21.8316 27.522 22.6421C26.5094 23.4527 26.0032 24.6316 26.0032 26.179C26.0032 28.6842 27.8113 30.8211 31.4638 32.5527C35.1525 30.7843 36.9607 28.6842 36.9607 26.179C36.9607 24.6316 36.4544 23.4527 35.4418 22.6421C34.4293 21.8316 33.1274 21.4264 31.4638 21.4264Z" fill="#222222"/>
<path d="M206.963 253.3C206.244 252.606 205.813 252.177 204.526 252.23C202.631 252.308 200.871 253.34 199.89 254.964C198.2 257.764 199.124 260.566 200.923 262.235L208.271 270.028C208.685 270.407 209.321 270.407 209.735 270.028L217.189 262.235C218.938 260.612 219.685 257.919 218.224 255.197C217.296 253.469 215.532 252.305 213.572 252.23C212.296 252.181 211.794 252.607 211.055 253.297C210.861 253.478 210.542 253.342 210.542 253.076L210.542 251.769C210.542 251.064 210.726 250.371 211.076 249.759L211.752 248.575C211.898 248.319 211.713 248 211.418 248H206.588C206.293 248 206.107 248.319 206.254 248.575L206.93 249.759C207.28 250.371 207.464 251.064 207.464 251.769V253.089C207.464 253.35 207.15 253.481 206.963 253.3Z" fill="black"/>
<path d="M33.0374 83.0125C33.7561 83.707 34.1866 84.1352 35.4739 84.0821C37.3695 84.0044 39.1292 82.9725 40.1095 81.3482C41.7996 78.5481 40.8755 75.7465 39.0765 74.0776L31.7289 66.2845C31.3146 65.9052 30.6794 65.9052 30.265 66.2845L22.8105 74.0776C21.0615 75.7 20.3151 78.3939 21.7763 81.1155C22.7039 82.8433 24.4683 84.0075 26.4277 84.0829C27.7039 84.1317 28.2059 83.7055 28.945 83.0156C29.1393 82.834 29.4579 82.9706 29.4579 83.2369L29.4583 84.5438C29.4583 85.2486 29.274 85.9415 28.9242 86.5536L28.2479 87.737C28.1017 87.9936 28.2868 88.3126 28.5822 88.3126H33.4117C33.7072 88.3126 33.8926 87.9936 33.746 87.737L33.0697 86.5536C32.72 85.9415 32.5361 85.2486 32.5361 84.5438V83.2234C32.5361 82.9629 32.85 82.8317 33.0374 83.0125Z" fill="black"/>
<path d="M128.15 191.05C131.024 193.828 132.746 195.541 137.896 195.328C145.478 195.018 152.517 190.89 156.438 184.393C163.199 173.193 159.502 161.986 152.306 155.31L122.916 124.138C121.258 122.621 118.717 122.621 117.06 124.138L87.242 155.31C80.2461 161.8 77.2605 172.576 83.1053 183.462C86.8156 190.373 93.8732 195.03 101.711 195.332C106.816 195.527 108.824 193.822 111.78 191.063C112.557 190.336 113.831 190.882 113.831 191.947L113.833 197.175C113.833 199.994 113.096 202.766 111.697 205.214L108.991 209.948C108.407 210.975 109.147 212.25 110.329 212.25H129.647C130.829 212.25 131.57 210.975 130.984 209.948L128.279 205.214C126.88 202.766 126.144 199.994 126.144 197.175V191.894C126.144 190.852 127.4 190.327 128.15 191.05Z" fill="black"/>
</svg>
