<svg width="240" height="336" viewBox="0 0 240 336" fill="none" xmlns="http://www.w3.org/2000/svg">
<rect width="240" height="336" rx="11" fill="white"/>
<rect width="240" height="336" rx="11" fill="white"/>
<path d="M215.069 317.927V301.715L207.562 310.188C204.875 313.195 203.477 315.506 203.366 317.156L203.293 317.927H198.362L198.435 316.79C198.619 314.882 200.386 312.022 203.771 308.207L208.334 302.999L201.784 294.453C198.84 290.639 197.258 287.631 197.11 285.504L197 284H201.931L202.005 285.174C202.152 287.154 203.366 289.648 205.685 292.619L211.61 300.285L215.069 296.36V284.037H220V318H215.069V317.927Z" fill="#222222"/>
<path d="M24.9312 18.0734V34.2848L32.4384 25.8123C35.1248 22.8048 36.5232 20.4941 36.6336 18.8436L36.7072 18.0734H41.6384L41.5648 19.2104C41.3808 21.1176 39.6144 23.9785 36.2288 27.7929L31.6656 33.001L38.216 41.5469C41.16 45.3614 42.7424 48.3689 42.8896 50.4962L43 52H38.0688L37.9952 50.8263C37.848 48.8457 36.6336 46.3517 34.3152 43.3808L28.3904 35.7152L24.9312 39.6396V51.9633H20V18H24.9312V18.0734Z" fill="#222222"/>
<path d="M206.963 253.3C206.244 252.606 205.813 252.177 204.526 252.23C202.631 252.308 200.871 253.34 199.89 254.964C198.2 257.764 199.124 260.566 200.923 262.235L208.271 270.028C208.685 270.407 209.321 270.407 209.735 270.028L217.189 262.235C218.938 260.612 219.685 257.919 218.224 255.197C217.296 253.469 215.532 252.305 213.572 252.23C212.296 252.181 211.794 252.607 211.055 253.297C210.861 253.478 210.542 253.342 210.542 253.076L210.542 251.769C210.542 251.064 210.726 250.371 211.076 249.759L211.752 248.575C211.898 248.319 211.713 248 211.418 248H206.588C206.293 248 206.107 248.319 206.254 248.575L206.93 249.759C207.28 250.371 207.464 251.064 207.464 251.769V253.089C207.464 253.35 207.15 253.481 206.963 253.3Z" fill="black"/>
<path d="M33.0374 83.0125C33.7561 83.707 34.1866 84.1352 35.4739 84.0821C37.3695 84.0044 39.1292 82.9725 40.1095 81.3482C41.7996 78.5481 40.8755 75.7465 39.0765 74.0776L31.7289 66.2845C31.3146 65.9052 30.6794 65.9052 30.265 66.2845L22.8105 74.0776C21.0615 75.7 20.3151 78.3939 21.7763 81.1155C22.7039 82.8433 24.4683 84.0075 26.4277 84.0829C27.7039 84.1317 28.2059 83.7055 28.945 83.0156C29.1393 82.834 29.4579 82.9706 29.4579 83.2369L29.4583 84.5438C29.4583 85.2486 29.274 85.9415 28.9242 86.5536L28.2479 87.737C28.1017 87.9936 28.2868 88.3126 28.5822 88.3126H33.4117C33.7072 88.3126 33.8926 87.9936 33.746 87.737L33.0697 86.5536C32.72 85.9415 32.5361 85.2486 32.5361 84.5438V83.2234C32.5361 82.9629 32.85 82.8317 33.0374 83.0125Z" fill="black"/>
<path d="M128.15 191.05C131.024 193.828 132.746 195.541 137.896 195.328C145.478 195.018 152.517 190.89 156.438 184.393C163.199 173.193 159.502 161.986 152.306 155.31L122.916 124.138C121.258 122.621 118.717 122.621 117.06 124.138L87.242 155.31C80.2461 161.8 77.2605 172.576 83.1053 183.462C86.8156 190.373 93.8732 195.03 101.711 195.332C106.816 195.527 108.824 193.822 111.78 191.063C112.557 190.336 113.831 190.882 113.831 191.947L113.833 197.175C113.833 199.994 113.096 202.766 111.697 205.214L108.991 209.948C108.407 210.975 109.147 212.25 110.329 212.25H129.647C130.829 212.25 131.57 210.975 130.984 209.948L128.279 205.214C126.88 202.766 126.144 199.994 126.144 197.175V191.894C126.144 190.852 127.4 190.327 128.15 191.05Z" fill="black"/>
</svg>
